<mxfile host="app.diagrams.net" modified="2022-04-27T07:41:49.845Z" agent="5.0 (Macintosh; Intel Mac OS X 10_15_5) AppleWebKit/537.36 (KHTML, like Gecko) Chrome/100.0.4896.88 Safari/537.36" etag="J0fpETt3xPpX7jewHKYy" version="17.4.6" type="github">
  <diagram id="onJdCoKc7aqf3rBxl-RR" name="Page-1">
    <mxGraphModel dx="1186" dy="773" grid="1" gridSize="10" guides="1" tooltips="1" connect="1" arrows="1" fold="1" page="1" pageScale="1" pageWidth="827" pageHeight="1169" math="0" shadow="0">
      <root>
        <mxCell id="0" />
        <mxCell id="1" parent="0" />
        <mxCell id="b01nRs1X-RtVFsQmRS1v-1" value="" style="shape=image;verticalLabelPosition=bottom;labelBackgroundColor=default;verticalAlign=top;aspect=fixed;imageAspect=0;image=data:image/jpeg,/9j/4AAQSkZJRgABAQEAAAAAAAD/4QAuRXhpZgAATU0AKgAAAAgAAkAAAAMAAAABAG0AAEABAAEAAAABAAAAAAAAAAD/2wBDAAoHBwkHBgoJCAkLCwoMDxkQDw4ODx4WFxIZJCAmJSMgIyIoLTkwKCo2KyIjMkQyNjs9QEBAJjBGS0U+Sjk/QD3/2wBDAQsLCw8NDx0QEB09KSMpPT09PT09PT09PT09PT09PT09PT09PT09PT09PT09PT09PT09PT09PT09PT09PT09PT3/wAARCAERAdoDASIAAhEBAxEB/8QAHwAAAQUBAQEBAQEAAAAAAAAAAAECAwQFBgcICQoL/8QAtRAAAgEDAwIEAwUFBAQAAAF9AQIDAAQRBRIhMUEGE1FhByJxFDKBkaEII0KxwRVS0fAkM2JyggkKFhcYGRolJicoKSo0NTY3ODk6Q0RFRkdISUpTVFVWV1hZWmNkZWZnaGlqc3R1dnd4eXqDhIWGh4iJipKTlJWWl5iZmqKjpKWmp6ipqrKztLW2t7i5usLDxMXGx8jJytLT1NXW19jZ2uHi4+Tl5ufo6erx8vP09fb3+Pn6/8QAHwEAAwEBAQEBAQEBAQAAAAAAAAECAwQFBgcICQoL/8QAtREAAgECBAQDBAcFBAQAAQJ3AAECAxEEBSExBhJBUQdhcRMiMoEIFEKRobHBCSMzUvAVYnLRChYkNOEl8RcYGRomJygpKjU2Nzg5OkNERUZHSElKU1RVVldYWVpjZGVmZ2hpanN0dXZ3eHl6goOEhYaHiImKkpOUlZaXmJmaoqOkpaanqKmqsrO0tba3uLm6wsPExcbHyMnK0tPU1dbX2Nna4uPk5ebn6Onq8vP09fb3+Pn6/9oADAMBAAIRAxEAPwD2WiiigAooooAKKKKACiiigAooooAKKKKACiiigAooooAKKKKACiiigAooooAKKKKACiiigAooooAKKKKACiiigAooooAKKKKACiiigAooooAKKKKACiiigAooooAKKKKACiiigAooooAKKKKACiiigAooooAKKKKACiiigAooooAKKKKACiiigAooooAKKKKACiiigAooooAKKKKACiiigAooooAKKKKACiiigAooooAKKKKACo5p4reMvM6og7scCob++j0+ze4l+6o6DufSuAv9Sn1GcyzOevyqOi1tRouo/Ixq1lT9TsZPFGmxnAkd/dUOKlttf0+6YKk4VycBXG0n868/zRmup4ONtGcyxUr7I9TzRXF+Htfe2mS1unLQscKxOdh9PpXaCuOpTdN2Z106imroKKKKzNAooooAKKKKACiiigAooooAKKKKACiiigAooooAKKKKACiiigAooooAKKKKACiiigAooooAKKKKACiiigAooooAKKKKACiiigAooooAKKKKACiiigAooooAKKKKACiiigAooooAKKKKAOP8a3R863tgflALkevYf1rmEO9woIyxxknGK6DxxEy6hBL/AAsm3P0rm48yOEXG5jgZNethkvZJo8rEN+0dy9cWRt5rdBMkvnqCGTOBlsfjgim3UMVu7otyJZEYqyiMrjHB5NS3cTRx6exkiXy0CMwcNsbeSMgdhkGpbyac2d19vnhmkZ18jYytznkjHQEev5U1OTtqS0lfQzN9ekaHdG70e3lY5Yrgn1xxXmW6vSPDMRi0K3DDBI3fnWWNS5UzfBt3aNWiiivNPQCiiigAooooAKKKKACiiigAooooAKKKKACiiigAooooAKKKKACiiigAooooAKKKKACiiigAooooAKKKKACiiigAooooAKKKKACiiigAooooAKKKKACiiigAooooAKKKKACiiigAoprOBnJwAM5qob1psrZJ5v8A00JxGPx7/h+YosFyp4j0wanpjAFVlj+ZWY4ArzV90ZKsCCOoNeqrYeYQ93J57jkKRhF+i/1Oarat4cstWG6VdkoHEi8GuqhiPZaPVHNWoe01WjPMsj2oz6V1EvgG5DHybpGXtuGKsWngIBw15c7lH8KDGa63iqaV0cawlRs57RtPOp30cbMEh3fMzHGfYe5r1GOMRRqiDCqMAVXttNtbW0FtFCgixypGc/Wm/Y3g5tJmQD/lm/zJ/iPw/KuCtWdV3Z30aSpKxdoql9uaHi7iaIf89F+ZPz7fjirSSLIoZGVlPQg5BrGxrcfRRRQMKKKKACiiigAooooAKKKKACiiigAooooAKKKKACiiigAooooAKKKKACiiigAooooAKKKKACiiigAooooAKKKKACiiigAooooAKKKKACiiigAooqtc6ha2n/HxPHH7E8/lQk3sJtLcs0VmL4h01jgXKj3IIq/FNHMgeJ1dT3U5FNxa3QlJPZklFFVJL4FzHboZ5B1Cnhfq3Qfz9qRRbyKpG+8wlLRPPccEg4Rfq39Bmj7I9xzeSbx/zyThB9e7fjx7VaVVQBVACgcAdBRoLUqixaYhr2TzvSMDCD8O/wCOauAAAAAADoBS0UDCiiigAooooAKKKKACqbaem4vAWt5Cc5j4B+o6GrlFAFLzruDiaITIP44Rz+Kn+mfpU8NzFcAmFw2Oo7j6jtU1QTWcNwQ0ifOOjqcMPxFGgtSeiqe27tz8ri4Qfwv8rj8eh/HH1p8d9FI4jbdFKf4JBtJ+nr+GaLBcs0UUhIAyeg9aBi0VSk1axiO17qEH03VNDeW9z/qZo5P91s0+VroTzLuT0UUUigooooAKKKKACiiigAooooAKKKKACiiigAooooAKKKKACiiigAooooAKKKKACiiigAooooAKKKKACiiigAoopk8giheQ9EUsfwoAwPEWvmzJtbUjziMs39wf4muQeRpHLuzMxOSxOSabcXDXM8kznLSMWJNRjcxCqMsxwAO9evRoxhHzPKqVnOXkS5qey1CewmElvIVOeV7N9RTLi1NujE3EDuhCuiNllP8AXHtmq2a05YyXdGfM4s77TLr+27bzppcLnDQIcAfU9T/KtaNEiQJGoVR0AGAK4bwndtDrAhydkykY9xzXeV5NeHJNpbHp0Z88bhRRRWRsFFFFABRRRQAUUUUAFFFFABRRRQAUUUUAFMliSZCkiK6nqGGafRQBm3IOmW7zJcbIkGSkvzL+B6j9fpXIalrtzqbkMxji7RKf5+tanjS9IeC0U8ffYevp/WuWTc7hVGWJwB0zXoYaimueRwYiq0+VEmackjRuHRmVweGB6U64spbeeKElHeVQV2NkHJx19cilmsmijkkE0MojbbIIyTtJ47jpkEcV1Xg7eZze8jp/D/iI3Ei2l6wMh+5J/e9j7101eUpIyOGUkMpyCO1emabdfbNPgn7uoJ+tcGKoqm01szuw1VzTT6FqiiiuQ6gooooAKKKKACiiigAooooAKKKKACiiigAooooAKKKKACiiigAooooAKKKKACiiigAooooAKKKKACq98hksZ0Xq0bAflVig0baiep5HkjIPUcGpbOZYr2CRzhElVmPoAav+J9IbTNQaRR+4mOVI7H0rE317dOaqQT7njzg6ctToL7f9mvWu4oUHmD7MyKo3ZbtjqNvPNY2+oMijfThDkRMpczN3wupl1+32/wAOWP5V6LjrXL+DdIa2ga9nGJJR8gPZf/r11Oa8rE1FOo7dD08NBwhqFFFFYHQFFFFABRRRQAUUUUAFFFFABRRRQAUUUUAFFFFAHC+NAyaxGx+60QxXPKGkcIgLMTgKO9d34t0lr/TxLCMzQHcAO47157n/AAr1cLNSpqPVHl4qDjO/Rm9NbPHNpRuQ0MSxorv02ncx/A9KW/eX7Bdm5gjtyZlaPy+PMPOf94Ac5rAzSZrRUnpd7GXtFrZE++vR/DSlNAtA3UrmvPtLsJdUv47eMHBOWb0FepQxLDEkajCoAorlxtRO0UdWDg1eTJKKKK4DvCiiigAooooAKKKKACiiigAooooAKKKKACiiigAooooAKKKKACiiigAooooAKKKKACiiigAooooAKhublbZMsCxPCqOrH0FFxcrbJlssTwqjqx9BUdtbsHM1wQ0xGAB0Qeg/x70AQnTkvI3N+qyvIMEdkHoP8e9c1f8AgNt5awnG0nISTt+NdrRVxqSg/ddiJU4z+JHnaeB9TL4ZoVXPJ3Zre0jwZbWLrNdP58q8gEYArpqKudepNWbIjQhF3SKMP+h3Xk9IZSWj/wBlupX8eSPxq8KhuYBcwlDxnkMOqkdCPcGmWk7TRlZABNGdsijsfX6HrWL1NSzRRRQMKKKKACiiigAooooAKKKKACiiigAooooAKKKCcDnpQBTvpGKLbxnEsx2gj+Ff4j+A/UisTV/BlvefvLNhBIB0x8prZs/9Ike8YcSfLFnsg/xPP5VeqozlB3iyJRU1Zo80l8H6vG+BCrj1VqtWXgi/mcfamSFM84OTXoNFbPFVGrXMlhqad7GLDo8GjWaSWaEvCdzHu6/xD8ufqBWwjK6KykFWGQRTj0qlaf6PNJaHovzxf7h7fgcj6YrBtvVm6SWiLtFFFIYUUUUAFFFFABRRRQAUUUUAFFFFABRRRQAUUUUAFFFFABRRRQAUUUUAFFFFABRRRQAUUUUAFQXNytugJBYnhVHVj6Ci5uVt0BILE8Ko6sfQUy3t2Dme4IaYjAx0Qeg/x70AFtbtvM9wQ05HGOiD0H+PerVFFABRRRQAUUUUAFUrtfIkW8QE7BiVR/En+I6/TIq7QaEDGqwZQwIIIyCO9OqjbH7JP9lP+qbLQn09V/DqPb6VeoYkFFFFAwooooAKKKKACiiigAooooAKKKKACqV8fOKWak5l5cjsg6/nwPxq07iNCzEBQMkntVWxUyb7qQEPNyAf4V7D+v1NCEy4AFAAGAB0FLRRQMKKKKACqd8hVUuIwS8B3YH8S/xD8ufqBVyihANRlkVWUgqRkEd6dVK0PkTSWh+6vzxf7h7fgePoRV2hggooooAKKKKACiiigAooooAKKKKACiiigAooooAKKKKACiiigAooooAKKKxfEuptp2n7YziaY7VI7eppxi5NJEykoptjNW8TQ2LmG3UTTDrz8qn396wpPE+pSEkTIg9FQf1rE3988nqaTfXqQw0IrVXZ508RKT0dkdDbeLL2Jh5wSZe4K7T+ldDba5a3dsJIiS5OPK/iz6f/AF68/wB1T2N9JYXiXEZ+ZTyPUen41FXDRavFWZdPENOzeh6HbQMHM9wQ05Hbog9B/j3q1UcEy3ECTIcq6hhUlea73O9BRRRQMKKKKACiiigAooooAr3Vv9oh2A7WB3I391h0NJaz+fFlhtkU7XX+6w/zn6GrNch4h1gw3rw2MhRyu2Zh39Me/UZ96unB1Hyoic1BXZ0V1q1lZnbNcIrD+HOT+QqsniXTXOPPK+7KRXB7ySSTknkk85ozXasHG2rOR4t30R6dDPFcRh4ZFdT0KnIqSvNLLULjT5hLbuQe6no31rvtL1GPU7NZ4+D0ZT1U+lc1ag6evQ6KVZT06l2iiisDYKKKKACiiigAJABJ6Cuc1PxXHbu0VmglccFyflH+NJ4s1VraJLOFiryjLsOy/wD1647NdmHw6muaWxyV67i+WO5rXPiG/ukKPMAhPKqo5/8ArVctfFt3Ew+0Ikqd8Daa53f70b/eut0KbVrHKq8073PSdP1K31KHzLd84+8p6r9auV5rpmpSabepMhO3OHX+8tejxyCWNXU5VgCD6151ej7KXkd1Gr7ReY+iiisTcKKKKAKd8pVFuIxl4DuwP4l/iH5fqBWPqHiyOI+XYqJj3kP3fw9aPFmqNbQpZwsVeUZcjsv/ANeuPzXbh8Oprmkcdeu4vlibDeJtSY589VHoEFWrTxbdROBdIsqdyBtNc3vpd/vXS6FNq1jnVead7npdjfwahAJbdwynqD1H1q1XnWi6m2m36Pk+W52yL6j/ABFehqQwBHQ968+tSdKVjuo1faRuOooorE2CiiigAooooAKKKKACiiigAooooAKKKKACiiigArifGsjf2lAn8IjyPzrtq5LxxaMY4LxRkJ8je2a3w7SqK5jiE3Tdjkt9XtPldiIIIrbzC25pJgDkenPQfTmszfU8V1biER3Fosu1shg5Q/Q46ivVqK8djyouzJr/AMuO+nWJGRFchVYYxVffRdXTXd1JO4AeRskDtUY3OQqglmOAB3prSKuD1eh6N4XkMmgW+7PGQM/WtiqOjWhsdKt4D95V5+tXq8SbTk7HswTUVcKKKKkoKKKKACiiigAooooAr38/2Wxmn/uIWrzB5WkJZjlmOSfWvSdZiM+j3SL1MZxXmG6vQwKWrODGtponQguAzFVJ5IGcValtoRZG5juGb59iq0e3cep79h/Os7dVu/lXFtDG6skcIyQc/M3Lfjnj8K7JJ8ySZyRas2yHfXQ+Drsx6k9vk7JEzj3Fczurc8IRmTXFYZwiEk+lZ4hJ03c0oN+0Vj0Cloorxz1gooooAKKKKAPPfFUhOvTA/wAKqB+VZCSKHUsu5QclScZrf8a2TRahHdAfu5V2k+4rnI5FDgupZAeVBxn8a9ig06SseRXTVR3NLUJQs1pNHFFGWt0cqq/LnnsevTvS3dwRpsKyRw+dP+8ysYXanQdPU5P4Cql7fRXSRKluYmijEYbzN2VH4deaju7s3UwfaECoqBQc4CjFNQbtdbEuW9nuJvr0fw9IZNBtGbrsxXmsYaWRY0BLscADvXqem232PT4IO6IAa5sa1ZLqdWDTu2WqKKK887wooooA898VysdemB6KqgVlQzCKZHeNZFU5KMcA/X2re8a2jRX8d0B+7kXaT6EVz1rcJBcxyvEsyoc7GOAfrXsUGnSVux5NZNVHfubMUa3JslvIo0llmyFRAhMeM8gdientVV5he6dcStFEjwuhVo0C8NkYOOoGAagk1Nfti3cMTLcB95Z5N+fUYx07VHNfRvA0NvbiCN33v85bOOg9gMnilGEk1p/wBOSfUiL16fpMhk0q1Zs5MS5z9K8wt4nurmOCMEvIwUCvVbaEW9tHEOiKFrDHSWi6nTg09X0JqKKK887gooooAKKKKACiiigAooooAKKKKACiiigAooooAKq6ikMljMtyu6Ladw/z3q1VKf8A0i9jgHKx/vZPf+6PzyfwoW4mef6r4dvNMIk8tngYZyvO32P06Vj7+x/I17IQCMEAj0NUZdF0+YlpLSEk99tdlPGSirNXOWeEi3dOx5XGHlcLGjOxOAFGc113h/w69nc291qCAF2KohP3TjIz9cGust9PtbX/AFFvGnuFovYjLauE++PmT/eHI/lU1MVKei0Q6eGUHd6ssiio4ZVmhSVfuuAw/GpK5TqCiiigAooooAKKKKACiiigBrKGUg8gjkV5r4i0iTSr9yFPkSHcjDt7V6ZUF3aQ30DQ3EYdG6gitaNZ0pXRlWpKorHke+jfXX33gPc5axuAqk5CuOlU4/Ad+zYlnhVehI5r0Y4um1dux57wtROyOdBJIAySTgAc5r0Lwno7adZGadcTTckH+EelQ+H/AA3aWLu0wMt3E21i3QehHsRzXTCuTEYjn91bHXh8Pye89wooorkOoKKKKACiiigCpqWnw6nZvbzrlWHB9DXnOraFeaTMQ6M8OeJFHB+teommsiuuGAIPY1rSrSpPTYxq0Y1N9zxzd70+KOW4cJDG0jscAKM16nJomnStuezhJ9dtWILK3tRiCGOP/dXFdTxztotTnWCV9Wc54Z8MNZuLy9A83HyJ/d/+vXVUUVxTm5u7OyEFBWQUUUVJQUUUUAVNS06HU7N7eYZVhwfQ15xq2h3mkzESRs8WflkUcGvUqayK64ZQwPYitaVaVJ6bGNWjGotTxvcPWpbeGW6kEdvG0jscAKM16k+h6c77ms4Sc5ztqxBZwWoxBCkY/wBkYrqeObWi1OdYJX1ZgeGfDR03F1d4Nww4X+5/9eumoorilNzd2dkYKCsgoooqSgooooAKKKKACiiigAooooAKKKKACiiigAooooAZLIsUbSOcKo3E+mKr2CMIjNIMSTHewPb0H4DApt2ftE8VqPuk+ZL/ALo6D8Tj8AauijZC6hRRRQMKDRRQBUsv3Tz23aN9yj/Zbn+eR+FW6qXH7m9gm6K37pvx5H6jH41boYIKKKKACiiigAooooAKKKKACiiigAooooApXX+jTpdj7o+SUf7PY/gf0Jq7TXVXVlYAqRgj1qrZOYy1rISXhxtJ/iU9D/T6ijcC5RRRQAUUUUAFFFFABRRRQAUUUUAFFFFABRRRQAUUUUAFFFFABRRRQAUUUUAFFFFABRRRQAUUUUAFFFFABRRRQAUUUjMFBJOABnJoAWjNcnq3ipmkaHTyFUcGUjOfp7e9YEt9czHdJcSsT1y5rphhZyV3oc88RGLstT0vrTWYIpYkAAZJPavPLbWL21IMNy+AfusdwP510Vlrg1mNLRl8uZz+8x0KDrj3PTHvU1MPKGu6HTrxm7bM19PBkWS5YENOdwB7KPuj8ufxq5SDHalrB7m6CiiigAooooAgvITcWskY4Yj5T6Ecj9QKW3mFxbxyjjcuSPT1/Wpq5rUddGkyT2sC75C+9SfuoG5P45yce9VCLm7IiUlBXZ0tFecz6reXRJluZDnsDgD8BUcV/cwENFcyqR6McV0/U5W3MPrUb7HpVFctpHihmlWC/wBvzHCygY/P/GupBB6VzzhKDszeE1NXQUUUVBYUUUUAFFFFABRRRQAVTvFMWy6QEtF94D+JD1/Lr+FXKDQgGowdQykFSMgjvTq5m/13+yTJZ26iR0OUYnhFPY/Tp9MVz1xq15dEmW5kOewOAPyrop4aU1fZHPPERg7bs9HzRXmsWo3UBDRXEqkejkiui0fxQZZFgv8AaGJwsg4B+tE8NOKvuEMRGTs9DqKKBRXOdAUUUUAFFFFABRRRQAUUUUAFFFFABRRRQAUUUUAFFFFABRRRQAUUUUAFFFFABRRRQAUUUUAFc74u1A21klsjYaY4Yjso610RriPG5YalB/d8vj862w8VKokzHEScabaMHNORXkJCIzkDJCgnFV99XLE3MgeGCYwxZDyyZ2hQO5I/l3NetP3Vc8uOrICSMg5BHBB4xT4p2gmSWNisiHcpHajULpbq9klTdtOAGPVsDGT7nGar76aV46rcL8stD1Kwuhe2MM69JFBx6VZrE8J7joEOfU4/OtuvEmrSaPYg7xTCiiipKCiiigClqt4LDTprj+JV+Uep7V5w8rSOzuSzscknvXa+MiRohx08xc1we+vRwUVyuR5+Lk+ZImzSncMZDDIyMjGak062+1znKs0Ua75FQZJA7D3J4q3r5mZrKWaMxlrcZXGADk8fgMV0ua5lFHMovlbM/Ndx4V1FrzTjFIcyQnbk9x2rgd9dT4HJM91/d2rWWLgnTv2NcLNqaXc7KiiivKPUCiiigAooooAKKKKACqOsXv8AZ+mTXAxuAwufU1ern/GhYaMuOnmrmrpxUppMio2oNo4t5Gd2ZiSzHJJ7+tA3EFgGKjgkDpUG+tO3uZJPD99GzfJGYtqgYxlv5mvZn7qVvI8lat3KgR3QuqOUXqwBIFNzV7SrpzdQJJcsmz5YocELJnsT0wSepzWYcoxUjBU4I9KUW23Fg1ZJo9A8L6g19pgWQ5khOwk9x2/z7VtVyHgYsXu/7uFrr68mvFRm0j1KLcoJsKKKKyNQooooAKKKKACiiigAooooAKKKKACiiigAooooAKKKKACiiigAooooAKKKKACiiigArmfGmntcWKXUYJaD7wH909a6amsquhVgCp4INVCThJSRM4qUWjyDfVm31Ga2heFPLMbsGZXjDZI+vpXQa54NlWR59NAZCcmInp9K5mWyu4XKyW0ykccqa9aNanUjqzypUZweiFlmaWQuwUE9kUKPyFEMb3EyRRgl3O0AVLZ6PqF64WC2k5P3mGAK7jw94YTScT3BElyR1HRfpU1cRGEbJ3ZVLDynLVWRrabaCx0+G3H8CgE+9WqKK8lu7ueolZWCiiigYUUUUAUdYsv7Q0ye3H3mX5T715fIGikaNwVdTgg9q9ermvEPhVNSY3NoVjuO4PRv/r11Yauqbs9mcuJo+0V1ujgxIR0JH0OKlmu5bgRiZ9wjXYvbj/Jp11pOoWblZ7WQY7gZB/Ko4bG8uHCx20zE9MLXo+0pvW6OD2dRaWYzfXoHg/T2s9MM0gxJOd2D2HaszQvBriRbjU8AKcrEDn867MAKAAMAdq4cVXU1yx2O3DUHD3pbi0UUVxHYFFFFABRRRQAUUUUAFZ+uWP8AaOlTQD7xGV+orQooTs7iaTVmeQPujcpICrKcEHtVmLVJ4rc26CHy2ADAxL82PU+orsPEPhRdRc3NmQk+PmU9G/8Ar1xdzpV/ZuVmtZRjuBkGvWp16dSKUtzy6lGcHpsSRarcwoioyZjG1GaMFl+hPTqaqb/rn881JDYXlw4WG2lYn/ZIrq9A8HtHKlzqWPlOViHP5051qdNNqzfkKFGpNpPRGp4S09rLSQ8gxJOd5B7DtW9SAAAAdBS15UpOUm2epGKikkFFFFSUFFFFABRRRQAUUUUAFFFFABRRRQAUUUUAFFFFABRRRQAUUUUAFFFFABRRRQAUUUUAFFFFABSFVPVQfqKWigAwB0GPpRRRQAUUUUAFFFFABRRRQAUUUUAIQD1AP1oCqOigfQUtFABRRRQAUUUUAFFFFABRRRQAUUUUAFFFFABSEA9QD9aWigBAoHQAfQUtFFABRRRQAUUUUAFFFFABRRRQAUUUUAFFFFABRRRQAUUUUAFFFFABRRRQAUUUUAFFFFAC0UUUAFFFFABRRRQAUUUUAFFFFABRRRQAUUUUAFFFFABRRRQAUUUUAFFFFABRRRQAUUUUAFFFFABRRRQAUUUUAFFFFABRRRQAUUUUAFFFFABRRRQAUUUUAFFFFABRRRQAUUUUAFFFFABRRRQAUUUUAFFFFABRRRQB/9k=;" vertex="1" parent="1">
          <mxGeometry x="10" y="60" width="1007.03" height="580" as="geometry" />
        </mxCell>
        <mxCell id="b01nRs1X-RtVFsQmRS1v-3" value="pre 15 6 3 2 4 7 13 18 17 20" style="text;html=1;strokeColor=none;fillColor=none;align=left;verticalAlign=middle;whiteSpace=wrap;rounded=0;fontSize=22;" vertex="1" parent="1">
          <mxGeometry x="10" y="560" width="520" height="120" as="geometry" />
        </mxCell>
        <mxCell id="b01nRs1X-RtVFsQmRS1v-4" value="post 2 4 3 13 7&amp;nbsp; 6 17 20 18&amp;nbsp; 15" style="text;html=1;strokeColor=none;fillColor=none;align=left;verticalAlign=middle;whiteSpace=wrap;rounded=0;fontSize=22;" vertex="1" parent="1">
          <mxGeometry x="10" y="635" width="520" height="120" as="geometry" />
        </mxCell>
        <mxCell id="b01nRs1X-RtVFsQmRS1v-5" value="pre-right 15 &lt;font color=&quot;#ff3399&quot;&gt;18&lt;/font&gt; 20 17 &lt;font color=&quot;#66ff66&quot;&gt;6&lt;/font&gt; 7 13 3 4 2" style="text;html=1;strokeColor=none;fillColor=none;align=left;verticalAlign=middle;whiteSpace=wrap;rounded=0;fontSize=22;" vertex="1" parent="1">
          <mxGeometry x="10" y="710" width="520" height="120" as="geometry" />
        </mxCell>
        <mxCell id="b01nRs1X-RtVFsQmRS1v-6" value="[15] 99&lt;br&gt;[15,18] 99&lt;br&gt;[15,18,20] 99&lt;br&gt;[15, 17] 18&lt;br&gt;[6] 15&lt;br&gt;[6, 7, 13] 15&lt;br&gt;[3] 6&lt;br&gt;[3,4]6&lt;br&gt;[2] 3&lt;br&gt;" style="text;html=1;strokeColor=none;fillColor=none;align=left;verticalAlign=top;whiteSpace=wrap;rounded=0;fontSize=22;" vertex="1" parent="1">
          <mxGeometry x="930" y="10" width="510" height="625" as="geometry" />
        </mxCell>
        <mxCell id="b01nRs1X-RtVFsQmRS1v-10" value="" style="endArrow=classic;html=1;rounded=0;fontSize=22;fontColor=#66FF66;strokeWidth=3;fillColor=#f8cecc;strokeColor=#b85450;" edge="1" parent="1">
          <mxGeometry width="50" height="50" relative="1" as="geometry">
            <mxPoint x="543" y="164" as="sourcePoint" />
            <mxPoint x="856" y="431" as="targetPoint" />
          </mxGeometry>
        </mxCell>
        <mxCell id="b01nRs1X-RtVFsQmRS1v-11" value="" style="endArrow=classic;html=1;rounded=0;fontSize=22;fontColor=#66FF66;strokeWidth=3;fillColor=#f8cecc;strokeColor=#b85450;" edge="1" parent="1">
          <mxGeometry width="50" height="50" relative="1" as="geometry">
            <mxPoint x="372" y="276" as="sourcePoint" />
            <mxPoint x="573" y="576" as="targetPoint" />
          </mxGeometry>
        </mxCell>
        <mxCell id="b01nRs1X-RtVFsQmRS1v-12" value="" style="endArrow=classic;html=1;rounded=0;fontSize=22;fontColor=#66FF66;strokeWidth=3;fillColor=#60a917;strokeColor=#2D7600;" edge="1" parent="1">
          <mxGeometry width="50" height="50" relative="1" as="geometry">
            <mxPoint x="544" y="159" as="sourcePoint" />
            <mxPoint x="120" y="546" as="targetPoint" />
          </mxGeometry>
        </mxCell>
        <mxCell id="b01nRs1X-RtVFsQmRS1v-13" value="" style="endArrow=classic;html=1;rounded=0;fontSize=22;fontColor=#66FF66;strokeWidth=3;fillColor=#f8cecc;strokeColor=#b85450;entryX=0.613;entryY=-0.021;entryDx=0;entryDy=0;entryPerimeter=0;" edge="1" parent="1" target="b01nRs1X-RtVFsQmRS1v-3">
          <mxGeometry width="50" height="50" relative="1" as="geometry">
            <mxPoint x="255" y="424" as="sourcePoint" />
            <mxPoint x="130" y="556" as="targetPoint" />
          </mxGeometry>
        </mxCell>
        <mxCell id="b01nRs1X-RtVFsQmRS1v-14" value="" style="endArrow=classic;html=1;rounded=0;fontSize=22;fontColor=#66FF66;strokeWidth=3;fillColor=#60a917;strokeColor=#2D7600;" edge="1" parent="1">
          <mxGeometry width="50" height="50" relative="1" as="geometry">
            <mxPoint x="772" y="269" as="sourcePoint" />
            <mxPoint x="692" y="421" as="targetPoint" />
          </mxGeometry>
        </mxCell>
        <mxCell id="b01nRs1X-RtVFsQmRS1v-15" value="pre 15 6 3 2 # # 4 # # # 7 # 13 ## 18 17 ## 20 ##" style="text;html=1;strokeColor=none;fillColor=none;align=left;verticalAlign=middle;whiteSpace=wrap;rounded=0;fontSize=22;" vertex="1" parent="1">
          <mxGeometry x="560" y="590" width="520" height="120" as="geometry" />
        </mxCell>
      </root>
    </mxGraphModel>
  </diagram>
</mxfile>
